{
  "accessors": [
    {
      "bufferView": 2,
      "componentType": 5126,
      "count": 1067,
      "max": [
        1.2092089653015137,
        40.014686584472656,
        14.185016632080078
      ],
      "min": [
        -24.905698776245117,
        0,
        -24.814647674560547
      ],
      "type": "VEC3"
    },
    {
      "bufferView": 2,
      "byteOffset": 12804,
      "componentType": 5126,
      "count": 1067,
      "max": [
        0.99986946582794189,
        1,
        0.99997168779373169
      ],
      "min": [
        -0.99978774785995483,
        -0.98910230398178101,
        -0.99914145469665527
      ],
      "type": "VEC3"
    },
    {
      "bufferView": 3,
      "componentType": 5126,
      "count": 1067,
      "max": [
        0.99956792593002319,
        0.99938309192657471,
        0.9999346137046814,
        1
      ],
      "min": [
        -0.99986547231674194,
        -0.99400269985198975,
        -0.99982964992523193,
        -1
      ],
      "type": "VEC4"
    },
    {
      "bufferView": 1,
      "componentType": 5126,
      "count": 1067,
      "max": [
        0.73867321014404297,
        2.6716547012329102
      ],
      "min": [
        -0.043291687965393066,
        -2.2826690673828125
      ],
      "type": "VEC2"
    },
    {
      "bufferView": 0,
      "componentType": 5125,
      "count": 5163,
      "max": [
        1066
      ],
      "min": [
        0
      ],
      "type": "SCALAR"
    },
    {
      "bufferView": 2,
      "byteOffset": 25608,
      "componentType": 5126,
      "count": 5280,
      "max": [
        10.110258102416992,
        50.975727081298828,
        20.079479217529297
      ],
      "min": [
        -33.79840087890625,
        8.8169021606445312,
        -30.936859130859375
      ],
      "type": "VEC3"
    },
    {
      "bufferView": 2,
      "byteOffset": 88968,
      "componentType": 5126,
      "count": 5280,
      "max": [
        0.92035013437271118,
        0.99947041273117065,
        0.92387962341308594
      ],
      "min": [
        -0.92387962341308594,
        0.38268318772315979,
        -0.92387962341308594
      ],
      "type": "VEC3"
    },
    {
      "bufferView": 3,
      "byteOffset": 17072,
      "componentType": 5126,
      "count": 5280,
      "max": [
        0.99923288822174072,
        0.92387938499450684,
        0.999778151512146,
        1
      ],
      "min": [
        -0.99989879131317139,
        -0.92387914657592773,
        -0.99997979402542114,
        -1
      ],
      "type": "VEC4"
    },
    {
      "bufferView": 1,
      "byteOffset": 8536,
      "componentType": 5126,
      "count": 5280,
      "max": [
        0.93136364221572876,
        0.98528259992599487
      ],
      "min": [
        0.014571905136108398,
        0.014571905136108398
      ],
      "type": "VEC2"
    },
    {
      "bufferView": 1,
      "byteOffset": 50776,
      "componentType": 5126,
      "count": 5280,
      "max": [
        0.93136364221572876,
        0.98528259992599487
      ],
      "min": [
        0.014571905136108398,
        0.014571905136108398
      ],
      "type": "VEC2"
    },
    {
      "bufferView": 0,
      "byteOffset": 20652,
      "componentType": 5125,
      "count": 19956,
      "max": [
        5279
      ],
      "min": [
        0
      ],
      "type": "SCALAR"
    }
  ],
  "asset": {
    "extras": {
      "author": "Daniyal Malik (https://sketchfab.com/daniyalmalik)",
      "license": "CC-BY-4.0 (http://creativecommons.org/licenses/by/4.0/)",
      "source": "https://sketchfab.com/3d-models/tree-cb3003a0129846a8802ebd973bda0286",
      "title": "Tree"
    },
    "generator": "Sketchfab-8.64.0",
    "version": "2.0"
  },
  "bufferViews": [
    {
      "buffer": 0,
      "byteLength": 100476,
      "byteOffset": 0,
      "name": "floatBufferViews",
      "target": 34963
    },
    {
      "buffer": 0,
      "byteLength": 93016,
      "byteOffset": 100476,
      "byteStride": 8,
      "name": "floatBufferViews",
      "target": 34962
    },
    {
      "buffer": 0,
      "byteLength": 152328,
      "byteOffset": 193492,
      "byteStride": 12,
      "name": "floatBufferViews",
      "target": 34962
    },
    {
      "buffer": 0,
      "byteLength": 101552,
      "byteOffset": 345820,
      "byteStride": 16,
      "name": "floatBufferViews",
      "target": 34962
    }
  ],
  "buffers": [
    {
      "byteLength": 447372,
      "uri": "scene.bin"
    }
  ],
  "images": [
    {
      "uri": "textures/Tree_Trunk_Mat_baseColor.jpeg"
    },
    {
      "uri": "textures/Tree_Trunk_Mat_metallicRoughness.png"
    },
    {
      "uri": "textures/Tree_Trunk_Mat_normal.png"
    },
    {
      "uri": "textures/Tree_Leaves_Mat_baseColor.png"
    },
    {
      "uri": "textures/Tree_Leaves_Mat_metallicRoughness.png"
    },
    {
      "uri": "textures/Tree_Leaves_Mat_normal.png"
    }
  ],
  "materials": [
    {
      "doubleSided": false,
      "name": "Tree_Trunk_Mat",
      "normalTexture": {
        "index": 2,
        "scale": 1,
        "texCoord": 0
      },
      "occlusionTexture": {
        "index": 1,
        "strength": 1,
        "texCoord": 0
      },
      "pbrMetallicRoughness": {
        "baseColorFactor": [
          1,
          1,
          1,
          1
        ],
        "baseColorTexture": {
          "index": 0,
          "texCoord": 0
        },
        "metallicFactor": 1,
        "metallicRoughnessTexture": {
          "index": 1,
          "texCoord": 0
        },
        "roughnessFactor": 1
      }
    },
    {
      "alphaMode": "BLEND",
      "doubleSided": true,
      "name": "Tree_Leaves_Mat",
      "normalTexture": {
        "index": 5,
        "scale": 1,
        "texCoord": 0
      },
      "occlusionTexture": {
        "index": 4,
        "strength": 1,
        "texCoord": 0
      },
      "pbrMetallicRoughness": {
        "baseColorFactor": [
          1,
          1,
          1,
          1
        ],
        "baseColorTexture": {
          "index": 3,
          "texCoord": 0
        },
        "metallicFactor": 1,
        "metallicRoughnessTexture": {
          "index": 4,
          "texCoord": 0
        },
        "roughnessFactor": 1
      }
    }
  ],
  "meshes": [
    {
      "name": "Tree_Mesh_Tree_Trunk_Mat_0",
      "primitives": [
        {
          "attributes": {
            "NORMAL": 1,
            "POSITION": 0,
            "TANGENT": 2,
            "TEXCOORD_0": 3
          },
          "indices": 4,
          "material": 0,
          "mode": 4
        }
      ]
    },
    {
      "name": "Tree_Mesh_Tree_Leaves_Mat_0",
      "primitives": [
        {
          "attributes": {
            "NORMAL": 6,
            "POSITION": 5,
            "TANGENT": 7,
            "TEXCOORD_0": 8,
            "TEXCOORD_1": 9
          },
          "indices": 10,
          "material": 1,
          "mode": 4
        }
      ]
    }
  ],
  "nodes": [
    {
      "children": [
        1
      ],
      "name": "RootNode (gltf orientation matrix)",
      "rotation": [
        -0.70710678118654746,
        -0,
        -0,
        0.70710678118654757
      ]
    },
    {
      "children": [
        2
      ],
      "name": "RootNode (model correction matrix)"
    },
    {
      "children": [
        3
      ],
      "matrix": [
        1,
        0,
        0,
        0,
        0,
        0,
        1,
        0,
        0,
        -1,
        0,
        0,
        0,
        0,
        0,
        1
      ],
      "name": "Tree.fbx"
    },
    {
      "children": [
        4
      ],
      "name": "RootNode"
    },
    {
      "children": [
        5,
        6
      ],
      "matrix": [
        21.108564376831055,
        0,
        0,
        0,
        0,
        21.108564376831055,
        0,
        0,
        0,
        0,
        21.108564376831055,
        0,
        48.9095458984375,
        0.45576643943786621,
        0.070621557533740997,
        1
      ],
      "name": "Tree_Mesh"
    },
    {
      "mesh": 0,
      "name": "Tree_Mesh_Tree_Trunk_Mat_0"
    },
    {
      "mesh": 1,
      "name": "Tree_Mesh_Tree_Leaves_Mat_0"
    }
  ],
  "samplers": [
    {
      "magFilter": 9729,
      "minFilter": 9987,
      "wrapS": 10497,
      "wrapT": 10497
    }
  ],
  "scene": 0,
  "scenes": [
    {
      "name": "OSG_Scene",
      "nodes": [
        0
      ]
    }
  ],
  "textures": [
    {
      "sampler": 0,
      "source": 0
    },
    {
      "sampler": 0,
      "source": 1
    },
    {
      "sampler": 0,
      "source": 2
    },
    {
      "sampler": 0,
      "source": 3
    },
    {
      "sampler": 0,
      "source": 4
    },
    {
      "sampler": 0,
      "source": 5
    }
  ]
}

