{
  "accessors": [
    {
      "bufferView": 0,
      "componentType": 5125,
      "count": 118800,
      "type": "SCALAR"
    },
    {
      "bufferView": 1,
      "componentType": 5126,
      "count": 20440,
      "max": [
        0.598418712615967,
        1.0,
        0.596610009670258
      ],
      "min": [
        -0.598418712615967,
        -0.187105104327202,
        -0.596610009670258
      ],
      "type": "VEC3"
    },
    {
      "bufferView": 2,
      "componentType": 5126,
      "count": 20440,
      "type": "VEC3"
    },
    {
      "bufferView": 3,
      "componentType": 5126,
      "count": 20440,
      "type": "VEC2"
    },
    {
      "bufferView": 4,
      "componentType": 5125,
      "count": 18288,
      "type": "SCALAR"
    },
    {
      "bufferView": 5,
      "componentType": 5126,
      "count": 3442,
      "max": [
        0.121895328164101,
        0.168698862195015,
        0.118539750576019
      ],
      "min": [
        -0.121536888182163,
        -0.155587956309319,
        -0.109472677111626
      ],
      "type": "VEC3"
    },
    {
      "bufferView": 6,
      "componentType": 5126,
      "count": 3442,
      "type": "VEC3"
    },
    {
      "bufferView": 7,
      "componentType": 5126,
      "count": 3442,
      "type": "VEC2"
    },
    {
      "bufferView": 8,
      "componentType": 5125,
      "count": 175356,
      "type": "SCALAR"
    },
    {
      "bufferView": 9,
      "componentType": 5126,
      "count": 34617,
      "max": [
        0.228493109345436,
        0.00307167740538716,
        0.223400786519051
      ],
      "min": [
        -0.219946622848511,
        -1.0,
        -0.282233119010925
      ],
      "type": "VEC3"
    },
    {
      "bufferView": 10,
      "componentType": 5126,
      "count": 34617,
      "type": "VEC3"
    },
    {
      "bufferView": 11,
      "componentType": 5126,
      "count": 34617,
      "type": "VEC2"
    },
    {
      "bufferView": 12,
      "componentType": 5125,
      "count": 3120,
      "type": "SCALAR"
    },
    {
      "bufferView": 13,
      "componentType": 5126,
      "count": 656,
      "max": [
        0.262680977582932,
        -0.129485219717026,
        0.249222993850708
      ],
      "min": [
        -0.259789764881134,
        -0.197355315089226,
        -0.238818943500519
      ],
      "type": "VEC3"
    },
    {
      "bufferView": 14,
      "componentType": 5126,
      "count": 656,
      "type": "VEC3"
    },
    {
      "bufferView": 15,
      "componentType": 5126,
      "count": 656,
      "type": "VEC2"
    },
    {
      "bufferView": 16,
      "componentType": 5125,
      "count": 2400,
      "type": "SCALAR"
    },
    {
      "bufferView": 17,
      "componentType": 5126,
      "count": 459,
      "max": [
        0.0729812234640121,
        -0.11538241058588,
        0.0734487548470497
      ],
      "min": [
        -0.0721061155200005,
        -0.285883545875549,
        -0.0713523104786873
      ],
      "type": "VEC3"
    },
    {
      "bufferView": 18,
      "componentType": 5126,
      "count": 459,
      "type": "VEC3"
    },
    {
      "bufferView": 19,
      "componentType": 5126,
      "count": 459,
      "type": "VEC2"
    }
  ],
  "asset": {
    "generator": "Substance Painter 2018.3.2",
    "version": "2.0"
  },
  "bufferViews": [
    {
      "buffer": 0,
      "byteLength": 475200,
      "target": 34963
    },
    {
      "buffer": 0,
      "byteLength": 245280,
      "byteOffset": 475200,
      "target": 34962
    },
    {
      "buffer": 0,
      "byteLength": 245280,
      "byteOffset": 720480,
      "target": 34962
    },
    {
      "buffer": 0,
      "byteLength": 163520,
      "byteOffset": 965760,
      "target": 34962
    },
    {
      "buffer": 0,
      "byteLength": 73152,
      "byteOffset": 1129280,
      "target": 34963
    },
    {
      "buffer": 0,
      "byteLength": 41304,
      "byteOffset": 1202432,
      "target": 34962
    },
    {
      "buffer": 0,
      "byteLength": 41304,
      "byteOffset": 1243736,
      "target": 34962
    },
    {
      "buffer": 0,
      "byteLength": 27536,
      "byteOffset": 1285040,
      "target": 34962
    },
    {
      "buffer": 0,
      "byteLength": 701424,
      "byteOffset": 1312576,
      "target": 34963
    },
    {
      "buffer": 0,
      "byteLength": 415404,
      "byteOffset": 2014000,
      "target": 34962
    },
    {
      "buffer": 0,
      "byteLength": 415404,
      "byteOffset": 2429404,
      "target": 34962
    },
    {
      "buffer": 0,
      "byteLength": 276936,
      "byteOffset": 2844808,
      "target": 34962
    },
    {
      "buffer": 0,
      "byteLength": 12480,
      "byteOffset": 3121744,
      "target": 34963
    },
    {
      "buffer": 0,
      "byteLength": 7872,
      "byteOffset": 3134224,
      "target": 34962
    },
    {
      "buffer": 0,
      "byteLength": 7872,
      "byteOffset": 3142096,
      "target": 34962
    },
    {
      "buffer": 0,
      "byteLength": 5248,
      "byteOffset": 3149968,
      "target": 34962
    },
    {
      "buffer": 0,
      "byteLength": 9600,
      "byteOffset": 3155216,
      "target": 34963
    },
    {
      "buffer": 0,
      "byteLength": 5508,
      "byteOffset": 3164816,
      "target": 34962
    },
    {
      "buffer": 0,
      "byteLength": 5508,
      "byteOffset": 3170324,
      "target": 34962
    },
    {
      "buffer": 0,
      "byteLength": 3672,
      "byteOffset": 3175832,
      "target": 34962
    }
  ],
  "buffers": [
    {
      "byteLength": 3179504,
      "uri": "Untitled.bin"
    }
  ],
  "images": [
    {
      "uri": "02___Default_baseColor.png"
    },
    {
      "uri": "02___Default_occlusionRoughnessMetallic.png"
    },
    {
      "uri": "02___Default_normal.png"
    },
    {
      "uri": "1_1_mso_baseColor.png"
    },
    {
      "uri": "1_1_mso_occlusionRoughnessMetallic.png"
    },
    {
      "uri": "1_1_mso_normal.png"
    },
    {
      "uri": "wire_088144225_baseColor.png"
    },
    {
      "uri": "wire_088144225_occlusionRoughnessMetallic.png"
    },
    {
      "uri": "wire_088144225_normal.png"
    }
  ],
  "materials": [
    {
      "alphaMode": "BLEND",
      "name": "02___Default",
      "normalTexture": {
        "index": 2
      },
      "occlusionTexture": {
        "index": 1
      },
      "pbrMetallicRoughness": {
        "baseColorTexture": {
          "index": 0
        },
        "metallicRoughnessTexture": {
          "index": 1
        }
      }
    },
    {
      "alphaMode": "OPAQUE",
      "name": "1_1_mso",
      "normalTexture": {
        "index": 5
      },
      "occlusionTexture": {
        "index": 4
      },
      "pbrMetallicRoughness": {
        "baseColorTexture": {
          "index": 3
        },
        "metallicRoughnessTexture": {
          "index": 4
        }
      }
    },
    {
      "alphaMode": "OPAQUE",
      "name": "wire_088144225",
      "normalTexture": {
        "index": 8
      },
      "occlusionTexture": {
        "index": 7
      },
      "pbrMetallicRoughness": {
        "baseColorTexture": {
          "index": 6
        },
        "metallicRoughnessTexture": {
          "index": 7
        }
      }
    }
  ],
  "meshes": [
    {
      "name": "Object002",
      "primitives": [
        {
          "attributes": {
            "NORMAL": 2,
            "POSITION": 1,
            "TEXCOORD_0": 3
          },
          "indices": 0,
          "material": 0,
          "mode": 4
        }
      ]
    },
    {
      "name": "Object003",
      "primitives": [
        {
          "attributes": {
            "NORMAL": 6,
            "POSITION": 5,
            "TEXCOORD_0": 7
          },
          "indices": 4,
          "material": 1,
          "mode": 4
        }
      ]
    },
    {
      "name": "Cylinder004",
      "primitives": [
        {
          "attributes": {
            "NORMAL": 10,
            "POSITION": 9,
            "TEXCOORD_0": 11
          },
          "indices": 8,
          "material": 1,
          "mode": 4
        }
      ]
    },
    {
      "name": "Object004",
      "primitives": [
        {
          "attributes": {
            "NORMAL": 14,
            "POSITION": 13,
            "TEXCOORD_0": 15
          },
          "indices": 12,
          "material": 1,
          "mode": 4
        }
      ]
    },
    {
      "name": "Cylinder005",
      "primitives": [
        {
          "attributes": {
            "NORMAL": 18,
            "POSITION": 17,
            "TEXCOORD_0": 19
          },
          "indices": 16,
          "material": 2,
          "mode": 4
        }
      ]
    }
  ],
  "nodes": [
    {
      "children": [
        1,
        3,
        5,
        7,
        9
      ],
      "name": "1.obj",
      "scale": [
        21.0637607574463,
        21.0637607574463,
        21.0637607574463
      ],
      "translation": [
        3.57715702056885,
        21.1441516876221,
        -2.19624996185303
      ]
    },
    {
      "children": [
        2
      ],
      "name": "g Object002"
    },
    {
      "mesh": 0,
      "name": "Object002"
    },
    {
      "children": [
        4
      ],
      "name": "g Object003"
    },
    {
      "mesh": 1,
      "name": "Object003"
    },
    {
      "children": [
        6
      ],
      "name": "g Cylinder004"
    },
    {
      "mesh": 2,
      "name": "Cylinder004"
    },
    {
      "children": [
        8
      ],
      "name": "g Object004"
    },
    {
      "mesh": 3,
      "name": "Object004"
    },
    {
      "children": [
        10
      ],
      "name": "g Cylinder005"
    },
    {
      "mesh": 4,
      "name": "Cylinder005"
    }
  ],
  "samplers": [
    {
      "magFilter": 9729,
      "minFilter": 9985,
      "wrapS": 10497,
      "wrapT": 10497
    }
  ],
  "scene": 0,
  "scenes": [
    {
      "name": "Scene",
      "nodes": [
        0
      ]
    }
  ],
  "textures": [
    {
      "sampler": 0,
      "source": 0
    },
    {
      "sampler": 0,
      "source": 1
    },
    {
      "sampler": 0,
      "source": 2
    },
    {
      "sampler": 0,
      "source": 3
    },
    {
      "sampler": 0,
      "source": 4
    },
    {
      "sampler": 0,
      "source": 5
    },
    {
      "sampler": 0,
      "source": 6
    },
    {
      "sampler": 0,
      "source": 7
    },
    {
      "sampler": 0,
      "source": 8
    }
  ]
}